<svg width="145" height="121" viewBox="0 0 145 121" fill="none" xmlns="http://www.w3.org/2000/svg">
<g clip-path="url(#clip0)">
<path d="M139.836 99.7305C136.708 99.7305 134.172 101.847 134.172 104.457C134.172 111.547 131.146 111.547 129.521 111.547C121.988 111.547 118.155 94.1397 114.865 75.0673C118.743 65.8521 121.917 55.3887 124.361 43.7214C128.299 24.9215 128.771 10.1874 128.789 9.56916C128.866 6.95963 126.393 4.79203 123.266 4.72798C123.218 4.72704 123.171 4.72656 123.124 4.72656C120.061 4.72656 117.54 6.76702 117.465 9.33709C117.455 9.67622 116.764 29.68 110.818 52.1068C107.538 37.687 101.705 25.5631 93.7817 16.7883C83.8637 5.8054 70.7041 0 55.7246 0C48.0373 0 40.6027 1.6836 33.6271 5.00378C27.0392 8.13961 21.1526 12.5951 16.1303 18.2469C6.05107 29.5899 0.5 44.5956 0.5 60.5C0.5 76.4044 6.05107 91.4101 16.1303 102.753C21.1523 108.405 27.0392 112.86 33.6268 115.996C40.6027 119.316 48.0373 121 55.7246 121C61.7393 121 67.6778 120.552 73 119C75.9532 118.139 77.3208 115.105 76.2888 112.64C75.2566 110.176 72.0258 108.876 69.0734 109.737C64.9553 110.938 60.4637 111.547 55.7246 111.547C44.3251 111.547 33.4954 106.424 25.2296 97.1224C16.5876 87.397 11.8281 74.3909 11.8281 60.5C11.8281 46.6091 16.5876 33.603 25.2296 23.8776C33.4954 14.5758 44.3251 9.45312 55.7246 9.45312C67.17 9.45312 76.9306 13.8351 84.7348 22.4774C92.5991 31.1861 98.1578 43.993 100.811 59.5131C101.315 62.4653 101.798 65.3679 102.265 68.175C102.597 70.1701 102.923 72.1255 103.246 74.0409C99.5477 82.3958 96 88 89.0437 96.8454C88.3923 98.6881 88.2413 102.244 90.1941 103.46C91.2114 104.094 92.3997 104.4 93.5781 104.4C94.8288 104.4 95.4892 104.662 96.5 104C96.8845 103.748 97.8148 102.843 98.1213 102.5C101.11 99.1595 103.9 95.4317 106.488 91.3276C107.515 95.9842 108.638 100.185 109.959 103.839C111.494 108.083 116.166 121 129.521 121C136.661 121 140.473 117.91 142.415 115.317C144.462 112.583 145.5 108.929 145.5 104.457C145.5 101.847 142.964 99.7305 139.836 99.7305Z" fill="black"/>
<path d="M76.2888 112.64C77.3208 115.105 75.9532 118.139 73 119C85.5 114.5 89.0437 111.547 96.5 104C95.4892 104.662 94.8288 104.4 93.5781 104.4C92.3997 104.4 91.2114 104.094 90.1941 103.46C88.2413 102.244 88.3923 98.6881 89.0437 96.8454C85.2194 102.091 74.1077 108.046 69.0734 109.737C72.0258 108.876 75.2566 110.176 76.2888 112.64Z" fill="black"/>
</g>
<defs>
<clipPath id="clip0">
<rect width="145" height="121" fill="white"/>
</clipPath>
</defs>
</svg>
